<?xml version="1.0" standalone="no"?>
<!DOCTYPE svg PUBLIC "-//W3C//DTD SVG 1.1//EN" "http://www.w3.org/Graphics/SVG/1.1/DTD/svg11.dtd" >
<!--
2013-9-30: Created.
-->
<svg>
<metadata>
Created by iconfont
</metadata>
<defs>

<font id="iconfont" horiz-adv-x="1024" >
  <font-face
    font-family="iconfont"
    font-weight="500"
    font-stretch="normal"
    units-per-em="1024"
    ascent="896"
    descent="-128"
  />
    <missing-glyph />
    
    <glyph glyph-name="x" unicode="x" horiz-adv-x="1001"
d="M281 543q-27 -1 -53 -1h-83q-18 0 -36.5 -6t-32.5 -18.5t-23 -32t-9 -45.5v-76h912v41q0 16 -0.5 30t-0.5 18q0 13 -5 29t-17 29.5t-31.5 22.5t-49.5 9h-133v-97h-438v97zM955 310v-52q0 -23 0.5 -52t0.5 -58t-10.5 -47.5t-26 -30t-33 -16t-31.5 -4.5q-14 -1 -29.5 -0.5
t-29.5 0.5h-32l-45 128h-439l-44 -128h-29h-34q-20 0 -45 1q-25 0 -41 9.5t-25.5 23t-13.5 29.5t-4 30v167h911zM163 247q-12 0 -21 -8.5t-9 -21.5t9 -21.5t21 -8.5q13 0 22 8.5t9 21.5t-9 21.5t-22 8.5zM316 123q-8 -26 -14 -48q-5 -19 -10.5 -37t-7.5 -25t-3 -15t1 -14.5
t9.5 -10.5t21.5 -4h37h67h81h80h64h36q23 0 34 12t2 38q-5 13 -9.5 30.5t-9.5 34.5q-5 19 -11 39h-368zM336 498v228q0 11 2.5 23t10 21.5t20.5 15.5t34 6h188q31 0 51.5 -14.5t20.5 -52.5v-227h-327z" />
    

    
    <glyph glyph-name="gouwuche1" unicode="&#59041;" d="M380.3788096-30.757190400000013m-55.17448746666666 0a53.91786666666667 53.91786666666667 0 1 1 110.34897386666667 0 53.91786666666667 53.91786666666667 0 1 1-110.34897386666667 0ZM842.5573728-30.75828159999992m-55.17557866666667 0a53.918933333333335 53.918933333333335 0 1 1 110.35115733333333 0 53.918933333333335 53.918933333333335 0 1 1-110.35115733333333 0ZM886.5044181333333 117.55617066666662c-0.04038613333333333 0-0.08186453333333332 0-0.12334293333333333 0l-529.1066101333333-1.946192-16.8433472 1.8141173333333334c-5.418338133333333 2.307486933333333-29.288933333333333 15.702701866666667-38.08991253333333 75.00752533333332l-67.90168746666666 510.3738304c0.002183466666666667 0.8186453333333333-0.015281066666666667 1.6405642666666667-0.074224 2.4701248000000002-3.9174890666666666 54.65928639999999-26.828632533333334 85.6520928-45.358388266666665 102.02608426666667-20.808862933333334 18.390040533333334-41.128723199999996 23.242967466666666-44.990544 24.029958399999998-2.084816 0.4246037333333333-4.205652266666666 0.6440010666666667-6.333037866666667 0.6581909333333333l-67.458528 0.4125973333333333c-0.06876586666666666 0-0.13644053333333334 0-0.20520746666666667 0-17.990541866666668 0-32.63118826666667-14.529310933333333-32.74143253333333-32.544957866666664-0.11024426666666666-18.0844128 14.460545066666667-32.835303466666666 32.544957866666664-32.945547733333335l62.7660544-0.38421760000000005c7.0960149333333336-2.7277248 25.841892266666665-12.914942933333332 33.518599466666664-45.945629866666664 0.04693546666666667-0.8164618666666666 0.11461013333333334-1.6351072 0.22485439999999998-2.4581183999999996l71.12059946666666-534.5686090666667c0.0207392-0.15390506666666667 0.0414784-0.30671893333333333 0.0644-0.46062400000000003 16.679618133333335-113.07451626666666 82.80211733333334-128.6735232 90.28671573333332-130.08050133333333 0.8415669333333333-0.15827093333333334 1.6896832000000002-0.28270506666666667 2.5410741333333333-0.3743936l21.724653866666664-2.3402325333333334c1.1657504-0.12552533333333335 2.3369589333333334-0.18883413333333332 3.5081664-0.18883413333333332 0.03929493333333333 0 0.07858986666666666 0 0.1178848 0l530.9250933333333 1.9527413333333332c18.0844128 0.06767466666666666 32.6912224 14.781453866666666 32.625730133333334 32.86586666666667C919.1803583999999 102.97446719999994 904.5331626666666 117.55617066666662 886.5044181333333 117.55617066666662zM981.7826837333332 618.3987904c8.595771733333333 37.441545600000005 4.348642133333333 68.60026453333333-12.6846304 92.71208746666666-24.496040533333332 34.67670933333333-64.72971093333334 38.44029226666667-69.23662399999999 38.75574399999999-0.7957226666666667 0.05566826666666667-1.6034528 0.0851392-2.3882602666666664 0.07968106666666668l-556.3227338666666-1.7759136c-18.0844128-0.05785066666666666-32.69886293333333-14.765080533333334-32.641012266666664-32.85058453333333 0.05785066666666666-18.085504 14.756347733333333-32.72724266666667 32.85058453333333-32.641012266666664l554.4889695999999 1.7704565333333333c2.6240298666666666-0.44861759999999995 13.906049066666666-2.8401525333333333 19.757722666666666-11.124839466666666 3.7744992-5.343022933333333 5.3746773333333335-13.395214933333333 4.828914133333333-23.47982933333333-0.29362026666666663-1.1286389333333333-0.5326645333333333-2.2834741333333333-0.7084010666666667-3.4634144l-2.3216768-15.639393066666665c-0.3296405333333333-1.3338453333333333-0.6822037333333333-2.6851551999999996-1.0642389333333333-4.058295466666666-0.9998378666666666-3.5965802666666664-1.3480352-7.2182656-1.134096-10.7471712l-39.59512746666667-266.66759146666664c-0.45734933333333333-1.6809514666666667-0.7935402666666667-3.416477866666667-0.9823744-5.204398933333334-5.289538133333334-49.9635392-27.3973184-56.2103456-30.858549333333332-56.88381759999999l-431.5656085333333-38.79176426666667c-18.012372266666667-1.6187338666666666-31.301708799999997-17.533191466666665-29.68297493333333-35.54556373333333 1.5292287999999998-17.016900266666667 15.814037333333332-29.8161408 32.576611199999995-29.8161408 0.9812821333333334 0 1.9734805333333334 0.0436608 2.968952533333333 0.13316586666666666l432.0076768 38.8321504c5.2305952 0.46280746666666667 24.51459626666667 3.2145461333333336 44.327987199999995 19.133369599999998 11.531978666666667 9.264877866666666 25.0363456 24.5855456 34.556641066666664 49.28788373333333 3.258206933333333 4.260228266666667 5.516576 9.379488 6.360325333333334 15.059793066666666L981.7826837333332 618.3987904z"  horiz-adv-x="1024" />

    
    <glyph glyph-name="shanchu" unicode="&#58880;" d="M919.742495 657.073488 677.537174 657.073488l-66.596767 65.996087c-5.586229 6.421246-13.849426 10.478655-23.081695 10.478655L421.938821 733.54823l0-0.085958c-7.821129 0-15.679098-2.988054-21.61632-8.961092l-67.243497-67.427692L90.068342 657.073488c-16.797571 0-30.416753-13.465686-30.416753-30.073946 0-16.590863 13.619182-30.055526 30.416753-30.055526l255.601422 0c9.28855 0 17.60189 4.109598 23.189142 10.601452l65.687048 65.874313 140.806933 0 68.169589-67.551512c5.937223-5.886057 13.725606-8.837272 21.51092-8.837272l0-0.086981 254.708076 0c16.798595 0 30.4188 13.464663 30.4188 30.055526C950.160271 643.608825 936.541089 657.073488 919.742495 657.073488zM373.118929 28.59259 373.118929 476.482457c0 16.607236-13.604856 30.072923-30.401404 30.072923-16.779152 0-30.400381-13.465686-30.400381-30.072923l0-447.889867c0-16.607236 13.619182-30.055526 30.400381-30.055526C359.514073-1.462936 373.118929 11.986377 373.118929 28.59259zM845.812715 528.16863c-16.797571 0-30.416753-13.465686-30.416753-30.055526l-0.002047 0 0-531.408025c0-11.32493-4.714372-21.629623-12.277628-29.124318-0.401136-0.394996-0.816598-0.809435-1.204431-1.242294-7.386224-6.749728-17.322527-10.893094-28.248368-10.893094L236.150418-74.554628c-11.45182 0-21.894659 4.66116-29.454846 12.135388-7.563256 7.492648-12.277628 17.816784-12.277628 29.124318L194.417945 498.11208c0 16.58984-13.617136 30.055526-30.417777 30.055526-16.797571 0-30.416753-13.465686-30.416753-30.055526l0-531.408025c0-27.91477 11.540847-53.274344 30.105668-71.624271 18.577101-18.368346 44.229341-29.77821 72.462359-29.77821l537.514093 0c27.167756 0 51.998281 10.66899 70.473051 27.965935 0.664126 0.569982 1.326205 1.174756 1.989307 1.812275 18.563798 18.348903 30.105668 43.724851 30.105668 71.624271L876.233562 498.11208C876.231515 514.70192 862.61131 528.16863 845.812715 528.16863zM535.298636 28.59259 535.298636 476.482457c0 16.607236-13.604856 30.072923-30.400381 30.072923-16.781198 0-30.401404-13.465686-30.401404-30.072923l0-447.889867c0-16.607236 13.619182-30.055526 30.401404-30.055526C521.69378-1.462936 535.298636 11.986377 535.298636 28.59259zM697.495738 28.59259 697.495738 476.482457c0 16.607236-13.619182 30.072923-30.400381 30.072923-16.795525 0-30.4188-13.465686-30.4188-30.072923l0-447.889867c0-16.607236 13.621229-30.055526 30.4188-30.055526C683.876556-1.462936 697.495738 11.986377 697.495738 28.59259z"  horiz-adv-x="1024" />

    
    <glyph glyph-name="bangzhu" unicode="&#58956;" d="M527.449877 848.24537c-246.831688 0-446.928982-200.097294-446.928982-446.928982s200.097294-446.928982 446.928982-446.928982 446.928982 200.097294 446.928982 446.928982S774.282588 848.24537 527.449877 848.24537zM513.088798 131.241322c-28.621874 0-51.815109 23.650653-51.815109 52.825113 0 29.164227 23.192212 52.79339 51.815109 52.79339s51.816133-23.629163 51.815109-52.79339C564.903907 154.891975 541.711695 131.241322 513.088798 131.241322zM657.812947 463.136362c-7.150864-13.615089-15.648398-25.371854-25.483394-35.279504-9.834996-9.908674-27.504424-26.566052-52.976562-50.004881-7.04751-6.601348-12.695137-12.390191-16.933671-17.407462-4.248767-4.996804-7.40976-9.56996-9.471722-13.731746-2.093684-4.140297-3.689019-8.302083-4.818749-12.453636-1.139963-4.161786-2.849908-11.460006-5.129834-21.875217-3.937682-22.160719-16.269545-33.241079-36.985356-33.241079-10.768251 0-19.835767 3.63376-27.183106 10.858302-7.357572 7.257288-11.026124 18.010189-11.026124 32.280194 0 17.872043 2.684132 33.379225 8.072863 46.466288 5.38873 13.108552 12.529361 24.601304 21.441335 34.508955 8.911974 9.886161 20.923542 21.664416 36.042891 35.311227 13.253862 11.904121 22.840194 20.904099 28.736485 26.967188 5.91778 6.083555 10.880815 12.833283 14.922874 20.291139 4.041036 7.457856 6.062066 15.548114 6.062066 24.284079 0 17.038048-6.166443 31.403221-18.488073 43.106774-12.331863 11.725042-28.228925 17.587564-47.701418 17.587564-22.788006 0-39.566134-5.904477-50.333362-17.724687-10.777461-11.830443-19.886933-29.237905-27.347858-52.243875-7.04751-24.062022-20.405749-36.093033-40.08495-36.093033-11.596106 0-21.399379 4.214998-29.358655 12.622482-7.979742 8.408507-11.95938 17.524119-11.95938 27.304879 0 20.227694 6.310729 40.729633 18.943444 61.496609 12.632715 20.75572 31.078833 37.962613 55.317886 51.588959 24.218588 13.636578 52.509934 20.439518 84.821851 20.439518 30.043247 0 56.551994-5.693676 79.547731-17.080004 22.995737-11.397584 40.757263-26.89351 53.286624-46.476521 12.528338-19.6045 18.798135-40.909735 18.801205-63.885006C668.527986 492.648512 664.952554 476.77294 657.812947 463.136362z"  horiz-adv-x="1024" />

    
    <glyph glyph-name="16shuomingruo" unicode="&#58944;" d="M512 832C264.576 832 64 631.424 64 384s200.576-448 448-448 448 200.576 448 448S759.424 832 512 832zM512 0c-212.096 0-384 171.904-384 384s171.904 384 384 384 384-171.904 384-384S724.096 0 512 0zM512 640c35.328 0 64-28.672 64-64S547.328 512 512 512 448 540.672 448 576 476.672 640 512 640zM512 448c35.328 0 64-28.672 64-64l0-192c0-35.328-28.672-64-64-64s-64 28.672-64 64L448 384C448 419.328 476.672 448 512 448z"  horiz-adv-x="1024" />

    
    <glyph glyph-name="xuanze" unicode="&#58996;" d="M509.188394 879.391698c-275.193657 0-498.288719-223.079809-498.288719-498.273467 0-275.211961 223.094045-498.276517 498.288719-498.276517 275.164169 0 498.258214 223.064556 498.258214 498.276517C1007.446608 656.311889 784.352563 879.391698 509.188394 879.391698zM801.269989 528.625334 490.710095 218.095946c-6.835303-6.867843-15.82634-10.270241-24.785855-10.270241-8.991037 0-17.98004 3.402399-24.846866 10.270241L243.483016 415.673017c-13.733651 13.687893-13.733651 35.927541 0 49.647973 13.705179 13.719415 35.899069 13.719415 49.634754 0L465.92424 292.607055l285.651 285.651c13.736702 13.719415 35.961097 13.719415 49.694749 0C814.943646 564.539656 814.943646 542.32848 801.269989 528.625334z"  horiz-adv-x="1024" />

    
    <glyph glyph-name="zhiding" unicode="&#59039;" d="M93.44 657.44l837.664 0c19.2 0 34.912 15.712 34.912 34.912s-15.712 34.912-34.912 34.912L93.44 727.264c-19.2 0-34.912-15.712-34.912-34.912S74.24 657.44 93.44 657.44zM1014.08 100.32 536.928 577.44c-13.568 13.568-35.776 13.568-49.344 0L10.432 100.32c-13.568-13.568-13.568-35.776 0-49.344 13.568-13.568 35.776-13.568 49.344 0L512.256 503.392l452.448-452.448c13.568-13.568 35.776-13.568 49.344 0C1027.648 64.512 1027.648 86.72 1014.08 100.32z"  horiz-adv-x="1025" />

    
    <glyph glyph-name="bianji" unicode="&#58907;" d="M984.450085 353.966623c-1.330269 6.958329-3.479165 14.018987-6.242031 20.363346l-0.204657 0.409313-0.204657 0.409313c-6.651344 14.632957-15.860897 28.549615-27.321675 41.340662-12.074748 13.405016-23.637854 22.921555-35.405616 29.265914-6.139702 3.172179-12.381733 5.730389-19.544719 7.981613-8.390926 2.558209-16.781853 3.990806-25.377436 4.297792-1.432597 0.102328-2.455881 0.102328-3.376836 0.102328-8.902568 0-17.805136-1.330269-26.605376-4.093135-10.335165-3.172179-20.261017-8.595583-29.572899-15.963226l-0.511642-0.409313-0.511642-0.511642c-4.502448-3.888478-9.823524-8.697911-15.656241-14.325972-5.218747-5.116419-9.721195-9.41421-13.405016-12.893375l-3.888478-3.683821-0.102328 0.102328-2.762866-2.865194L743.978415 375.250924l1.22794-1.22794-2.353553-2.455881L638.682522 264.224643l-39.191766-40.419706-35.303288-36.4289c-10.846807-11.153792-19.954032-20.568002-27.117018-28.24263l-11.665434-12.279404-1.637254-1.739582c-6.753672-6.958329-12.177076-13.712002-16.372539-20.465674-3.479165-5.423404-6.753672-11.563106-9.516538-18.112122-2.762866-5.525732-5.321075-12.381733-8.493255-22.205256-2.762866-8.390926-5.525732-17.702808-8.493255-27.833317-2.762866-9.618867-5.423404-18.930748-7.879285-27.935645-3.172179-11.767763-5.01409-20.056361-5.935045-26.912361-3.274508-22.102928 0.818627-41.136005 12.484061-56.075947 6.958329-8.697911 22.102928-22.61457 49.322274-22.61457 3.376836 0 6.958329 0.204657 10.539822 0.61397l1.023284 0.102328 1.023284 0.204657c5.832717 0.920955 13.20036 2.660538 23.84251 5.525732 9.107225 2.455881 18.82842 5.423404 29.675227 9.004897 10.130509 3.376836 19.954032 6.856001 29.163585 10.335165 10.02818 3.888478 17.702808 7.162986 23.535525 10.02818 7.776956 3.581493 15.144599 8.18627 22.102928 13.712002 4.604777 3.581493 8.902568 7.265314 12.791046 10.744479 3.274508 2.762866 7.162986 6.651344 14.939942 14.632957 6.958329 7.265314 15.553912 16.167882 25.991406 27.01469 9.41421 9.925852 20.261017 20.977316 34.280004 35.098631l0.306985 0.306985 0.306985 0.306985 38.782452 40.419706 103.965624 107.240132 33.563705 34.689317-0.102328 0.102328 0.409313 0.306985c2.967523 2.660538 6.139702 5.730389 9.618867 9.209553 2.046567 2.148896 4.502448 4.604777 7.265314 7.265314 3.376836 3.376836 7.060658 7.060658 11.256121 11.256121l0.716299 0.716299 0.716299 0.716299c7.674628 8.595583 13.405016 18.009793 17.191166 28.24263 3.683821 9.823524 5.525732 20.158689 5.525732 30.493854C986.701309 339.12901 985.98501 346.701309 984.450085 353.966623L984.450085 353.966623M762.909164 135.495553l-38.782452-40.419706c-12.893375-12.995703-24.45648-24.865794-34.893974-35.712601-10.335165-10.744479-18.82842-19.647047-25.684421-26.707705-6.753672-6.958329-10.846807-11.051464-12.074748-11.972419-3.172179-3.069851-6.958329-6.139702-11.153792-9.516538-4.195463-3.376836-8.493255-6.037374-13.098031-8.083941-4.502448-2.251224-11.153792-5.116419-19.851704-8.493255-8.697911-3.274508-17.805136-6.549016-27.321675-9.721195-9.516538-3.172179-18.521435-5.935045-27.117018-8.18627-8.595583-2.251224-14.939942-3.78615-19.135405-4.502448-1.944239-0.204657-3.683821-0.306985-5.218747-0.306985-5.832717 0-9.925852 1.432597-12.177076 4.297792-2.865194 3.683821-3.683821 9.823524-2.455881 18.521435 0.61397 4.707105 2.148896 11.460777 4.604777 20.261017 2.455881 8.80024 5.01409 17.907465 7.776956 27.424003 2.762866 9.516538 5.423404 18.316778 7.981613 26.196063 2.558209 7.981613 4.707105 13.507345 6.344359 16.474868 1.944239 4.604777 4.093135 8.902568 6.549016 12.688718 2.353553 3.78615 5.935045 8.083941 10.437494 12.688718 1.944239 2.046567 6.446687 6.753672 13.609673 14.223643 7.060658 7.572299 15.963226 16.781853 26.605376 27.730988l35.303288 36.4289 39.191766 40.419706 104.067952 107.34246 90.560608-93.937444L762.909164 135.495553 762.909164 135.495553M936.765064 318.356351c-1.637254-4.297792-4.195463-8.493255-7.776956-12.484061-3.888478-3.990806-7.367643-7.469971-10.437494-10.539822-3.069851-2.967523-5.730389-5.62806-7.981613-7.981613-2.558209-2.660538-5.01409-5.01409-7.265314-6.958329l-90.560608 93.425802c3.888478 3.683821 8.493255 8.083941 13.81433 13.302688 5.321075 5.116419 9.823524 9.209553 13.302688 12.279404 4.502448 3.581493 9.209553 6.242031 14.018987 7.674628 4.40012 1.330269 8.697911 2.046567 12.893375 2.046567 0.409313 0 0.920955 0 1.330269 0 4.707105-0.204657 9.209553-0.920955 13.507345-2.251224 4.40012-1.330269 8.18627-2.865194 11.358449-4.502448 6.753672-3.683821 14.325972-10.02818 22.512241-19.135405 8.288598-9.209553 14.632957-18.726092 19.135405-28.754272 1.330269-2.967523 2.353553-6.446687 3.069851-10.539822 0.818627-3.990806 1.22794-8.083941 1.22794-12.484061C939.118617 327.054262 938.402318 322.654142 936.765064 318.356351L936.765064 318.356351M936.765064 318.356351 936.765064 318.356351zM364.544819-23.625062 163.367243-23.625062c-34.586989 0-62.624963 28.958929-62.624963 64.67153L100.74228 730.330369c0 35.610273 28.140302 64.569202 62.624963 64.569202l668.306585 0c34.586989 0 62.624963-28.958929 62.624963-64.569202l0-175.493155c0-18.112122 14.223643-32.745078 31.721795-32.745078 17.498151 0 31.721795 14.632957 31.721795 32.745078L957.74238 730.330369C957.844709 802.062556 901.25712 860.389727 831.673828 860.389727L163.367243 860.389727c-69.583292 0-126.17088-58.327171-126.17088-130.059358l0-689.283901c0-71.732187 56.587589-130.161687 126.17088-130.161687l201.177576 0c17.498151 0 31.721795 14.632957 31.721795 32.745078C396.266613-38.258019 382.04297-23.625062 364.544819-23.625062L364.544819-23.625062M364.544819-23.625062 364.544819-23.625062zM749.504147 646.72809c0 18.112122-14.223643 32.745078-31.721795 32.745078L265.388628 679.473169c-17.498151 0-31.721795-14.632957-31.721795-32.745078 0-18.112122 14.223643-32.745078 31.721795-32.745078l452.393724 0C735.280504 613.983012 749.504147 628.615969 749.504147 646.72809L749.504147 646.72809M749.504147 646.72809 749.504147 646.72809zM265.388628 506.74288c-17.498151 0-31.721795-14.632957-31.721795-32.745078 0-18.112122 14.223643-32.745078 31.721795-32.745078l312.101529 0c17.498151 0 31.721795 14.632957 31.721795 32.745078 0 18.112122-14.223643 32.745078-31.721795 32.745078L265.388628 506.74288 265.388628 506.74288M265.388628 506.74288 265.388628 506.74288zM442.621365 322.040172 265.388628 322.040172c-17.498151 0-31.721795-14.632957-31.721795-32.745078 0-18.112122 14.223643-32.745078 31.721795-32.745078l177.232737 0c17.498151 0 31.721795 14.632957 31.721795 32.745078C474.34316 307.407215 460.119516 322.040172 442.621365 322.040172L442.621365 322.040172M442.621365 322.040172 442.621365 322.040172z"  horiz-adv-x="1024" />

    
    <glyph glyph-name="zuojiantou" unicode="&#59105;" d="M710.4 57.6 358.4 403.2c-12.8 12.8-32 12.8-44.8 0l0 0c-12.8-12.8-12.8-32 0-44.8l352-352c12.8-12.8 32-12.8 44.8 0l0 0C723.2 19.2 723.2 44.8 710.4 57.6zM358.4 364.8l352 352c12.8 12.8 12.8 32 0 44.8l0 0c-12.8 12.8-32 12.8-44.8 0L313.6 409.6c-12.8-12.8-12.8-32 0-44.8l0 0C326.4 352 345.6 352 358.4 364.8z"  horiz-adv-x="1024" />

    
    <glyph glyph-name="shaixuan" unicode="&#58930;" d="M994.909 335.515h-247.273c-14.545 0-23.273-11.636-23.273-23.272v-8.727c0-14.545 11.636-23.273 23.273-23.273h247.273c14.545 0 23.272 11.636 23.272 23.272v5.818c0 14.545-11.636 26.182-23.272 26.182zM994.909 190.060h-247.273c-14.545 0-23.273-11.636-23.273-23.273v-8.727c0-14.545 11.636-23.273 23.273-23.273h247.273c14.545 0 23.272 11.636 23.272 23.273v8.727c0 14.545-11.636 23.273-23.272 23.273zM994.909 44.605h-247.273c-14.545 0-23.273-11.636-23.273-23.272v-11.636c0-14.545 11.636-23.272 23.273-23.272h247.273c14.545 0 23.272 11.636 23.272 23.272v11.636c0 11.636-11.636 23.272-23.272 23.272zM881.455 664.242c5.818 5.818 11.636 11.636 14.545 17.454 29.091 34.909 32 87.273 8.727 125.091-23.273 37.818-58.182 58.182-104.727 58.182-215.273 0-433.455 0-648.727 0-11.636 0-23.272 0-32-2.909-49.455-11.636-87.273-58.182-87.273-110.545 0-32 11.636-61.091 34.909-81.455 84.364-87.273 168.728-168.727 253.091-250.182 2.909-2.909 2.909-5.818 2.909-8.727 0-87.273 0-171.637 0-258.909 0-2.909 0-5.818 0-8.727 2.909-23.273 17.454-34.909 37.818-26.182 11.636 5.818 17.454 17.454 17.454 32 0 90.182 0 183.273 0 273.455 0 11.636-2.909 23.272-11.636 32-84.364 84.364-160 168.728-244.364 250.182-5.818 5.818-8.727 8.727-11.636 14.545-11.636 14.545-14.545 29.091-8.727 46.545 8.727 20.363 26.182 40.727 49.455 40.727h648.727c2.909 0 2.909 0 5.818 0 32 0 55.273-37.818 46.545-69.818-2.909-11.636-8.727-17.454-17.454-26.182-90.182-87.273-177.455-174.546-267.637-264.727-8.727-8.727-14.545-17.454-14.545-32 0-133.818 0-267.637 0-401.454 0-20.363 0-37.818 0-58.182 0-11.636 2.909-20.363 11.636-26.182 0 0 0 0 0-2.909 14.545 0 17.454 0 32 0 11.636 8.727 11.636 23.272 11.636 34.909 0 145.455 0 290.909 0 436.364 0 2.909 0 5.818 2.909 8.727 90.182 90.182 186.182 174.546 270.546 258.909z"  horiz-adv-x="1056" />

    
    <glyph glyph-name="weishoucang" unicode="&#58886;" d="M746.4192-96c-15.946666666666667 0-31.8944 3.1893333333333334-44.650666666666666 12.757333333333333l-175.41546666666667 95.68106666666665c-9.568000000000001 6.378666666666667-22.3264 6.378666666666667-28.704 0l-169.0368-92.49173333333333c-31.8944-15.946666666666667-70.16640000000001-19.136000000000003-98.87146666666666 0-35.08266666666667 22.3264-54.218666666666664 60.598400000000005-44.650666666666666 102.05973333333333l31.8944 204.12053333333333c3.1893333333333334 12.757333333333333-3.1893333333333334 25.514666666666667-9.568000000000001 31.8944l-140.33173333333335 143.52213333333333c-25.514666666666667 28.704-35.08266666666667 66.97706666666664-22.3264 105.24906666666668 12.757333333333333 35.08266666666667 41.4624 60.598400000000005 76.54506666666666 66.97706666666664l102.05973333333333 15.946666666666667c15.946666666666667 3.1893333333333334 35.08266666666667-9.568000000000001 35.08266666666667-25.514666666666667v0c3.1893333333333334-15.946666666666667-9.568000000000001-35.08266666666667-25.514666666666667-35.08266666666667l-102.05973333333333-15.946666666666667c-19.136000000000003-3.1893333333333334-25.514666666666667-15.946666666666667-25.514666666666667-22.3264-3.1893333333333334-12.7584 0-28.704 9.568000000000001-38.272000000000006l140.33173333333335-143.52213333333333c22.3264-22.3264 31.8944-57.40906666666666 28.704-89.30346666666667l-31.8944-204.12053333333333c-3.1893333333333334-15.946666666666667 3.1893333333333334-28.704 15.946666666666667-38.273066666666665 6.378666666666667-3.1893333333333334 19.136000000000003-9.568000000000001 31.8944-3.1893333333333334l175.41546666666667 95.68106666666665c28.704 15.946666666666667 63.78773333333334 15.946666666666667 92.49173333333333 0l175.41653333333335-95.68106666666665c15.946666666666667-9.568000000000001 28.704 0 31.8944 3.1893333333333334 12.757333333333333 9.568000000000001 15.946666666666667 22.3264 15.946666666666667 38.273066666666665l-31.8944 204.12053333333333c-6.378666666666667 31.8944 6.378666666666667 63.78773333333334 28.704 89.30346666666667l140.33173333333335 143.52213333333333c9.568000000000001 9.568000000000001 12.7584 25.514666666666667 9.568000000000001 38.272000000000006-3.1893333333333334 6.378666666666667-9.568000000000001 22.3264-25.514666666666667 22.3264l-194.55253333333334 28.704c-31.8944 6.378666666666667-60.598400000000005 25.514666666666667-73.35573333333332 54.218666666666664l-86.11306666666665 184.98346666666666c-6.378666666666667 12.757333333333333-15.946666666666667 19.136000000000003-28.704 19.136000000000003-6.378666666666667 0-22.3264-3.1893333333333334-28.704-19.136000000000003l-44.650666666666666-92.49173333333333c-6.378666666666667-15.946666666666667-25.514666666666667-22.3264-41.4624-15.946666666666667v0c-15.946666666666667 6.378666666666667-22.3264 25.514666666666667-15.946666666666667 41.4624l44.650666666666666 92.49173333333333c15.946666666666667 35.08266666666667 51.0304 57.40906666666666 86.11306666666665 57.40906666666666 38.272000000000006 0 70.16640000000001-22.3264 86.11306666666665-57.40906666666666l86.11306666666665-184.98453333333333c6.378666666666667-9.568000000000001 15.946666666666667-19.136000000000003 25.514666666666667-19.136000000000003l194.55253333333334-28.704c35.08266666666667-6.378666666666667 66.97706666666664-31.8944 76.54506666666666-66.97706666666664 12.757333333333333-38.272000000000006 3.1893333333333334-76.54506666666666-22.3264-105.24906666666668l-140.33173333333335-143.52213333333333c-9.568000000000001-9.568000000000001-12.757333333333333-22.3264-9.568000000000001-31.8944l31.8944-204.12053333333333c6.378666666666667-38.273066666666665-9.568000000000001-76.54506666666666-41.4624-98.87146666666666-31.8944-12.757333333333333-51.0304-19.136000000000003-70.16640000000001-19.136000000000003z"  horiz-adv-x="1037" />

    
    <glyph glyph-name="shouye2" unicode="&#59191;" d="M967.30112 471.6032l-394.7008 311.89504c-33.9968 26.90048-87.296 26.90048-121.20064 0L56.80128 471.6032c-13.50144-10.7008-15.80032-30.30016-5.09952-43.6992a30.5664 30.5664 0 0 1 43.29984-5.09952l12.29824 10.10176v-377.10336c0-53.49888 56.29952-93.39904 105.90208-93.39904h622.6944c49.00352 0 81.00352 37.49888 81.00352 93.39904v375.6032l11.40224-8.6016a31.78496 31.78496 0 0 1 19.49696-6.69696c9.20064 0 18.40128 3.9936 24.4992 11.79648 10.5984 13.50144 8.4992 33.00352-4.99712 43.6992z m-486.4-447.0016v172.5952c0 8.6016 15.60064 12.9024 31.09888 12.9024 15.60064 0 31.09888-4.3008 31.09888-12.9024v-172.5952H480.90112z m373.60128 31.09888c0-20.60288-5.70368-31.09888-18.70336-31.09888H606.1056c0 0.49664-0.59904 0.79872-0.59904 1.30048v171.29984c0 36.1984-29.19936 75.19744-93.39904 75.19744-64.2048 0-93.40416-38.99904-93.40416-75.19744v-171.29984c0-0.50176 0.80384-0.80384 0.80384-1.30048H213.0944c-19.50208 0-43.60192 16.896-43.60192 31.09888V482.0992l320.1024 252.60032c11.49952 9.09824 32.2048 9.09824 43.6992 0l321.2032-254.10048v-424.89856z"  horiz-adv-x="1024" />

    
    <glyph glyph-name="gouwuche2" unicode="&#58964;" d="M347.152 76.668c-36.848 0-66.72-30.257-66.72-67.58 0-37.325 29.872-67.582 66.72-67.582 36.849 0 66.721 30.257 66.721 67.582 0.001 37.324-29.871 67.58-66.721 67.58z m416.207 0c-36.849 0-66.72-30.257-66.72-67.58 0-37.325 29.871-67.582 66.72-67.582 36.849 0 66.721 30.257 66.721 67.582 0 37.324-29.872 67.58-66.721 67.58z m108.025 279.98l69.898 231.703c12.708 54.709-25.418 106.199-82.607 106.199H248.819l-6.512 35.399c-9.532 54.709-60.367 96.545-114.381 96.545h-22.239c-12.71 0-25.418-12.872-25.418-25.746 0-12.873 12.708-25.744 25.418-25.744h22.239c28.595 0 57.191-25.744 63.544-54.709l95.317-518.119c9.532-54.709 60.366-96.545 114.378-96.545h482.928c12.71 0 25.418 12.874 25.418 25.746 0 12.873-9.532 25.745-25.418 25.745H401.164c-28.593 0-57.188 25.746-63.542 54.709l-3.207 17.429 419.412 27.626c54.013 3.217 104.847 48.272 117.557 99.762z"  horiz-adv-x="1024" />

    
    <glyph glyph-name="fenlei1" unicode="&#59257;" d="M572 744h360c33.137 0 60 26.863 60 60s-26.863 60-60 60h-360c-33.137 0-60-26.863-60-60s26.863-60 60-60zM572-96h360c33.137 0 60 26.863 60 60s-26.863 60-60 60h-360c-33.137 0-60-26.863-60-60s26.863-60 60-60zM572 184h360c33.137 0 60 26.863 60 60s-26.863 60-60 60h-360c-33.137 0-60-26.863-60-60s26.863-60 60-60zM572 464h360c33.137 0 60 26.863 60 60s-26.863 60-60 60h-360c-33.137 0-60-26.863-60-60s26.863-60 60-60zM32 744c0 66.28 53.96 120 120 120h160c66.28 0 120-53.96 120-120v-160c0-66.28-53.96-120-120-120h-160c-66.28 0-120 53.96-120 120v160zM32 184c0 66.28 53.96 120 120 120h160c66.28 0 120-53.96 120-120v-160c0-66.28-53.96-120-120-120h-160c-66.28 0-120 53.96-120 120v160zM152 64.4c0-22.32 17.72-40.4 40.4-40.4h79.2c22.32 0 40.4 17.72 40.4 40.4v79.2c0 22.32-17.72 40.4-40.4 40.4h-79.2c-22.32 0-40.4-17.72-40.4-40.4v-79.2zM152 624.4c0-22.32 17.72-40.4 40.4-40.4h79.2c22.32 0 40.4 17.72 40.4 40.4v79.2c0 22.32-17.72 40.4-40.4 40.4h-79.2c-22.32 0-40.4-17.72-40.4-40.4v-79.2z"  horiz-adv-x="1024" />

    
    <glyph glyph-name="fenlei4" unicode="&#58893;" d="M191.169 715.9110000000001h294.457c17.562 0 31.799 14.237 31.799 31.799s-14.237 31.799-31.799 31.799h-294.457c-17.562 0-31.799-14.237-31.799-31.799s14.237-31.799 31.799-31.799zM191.169 355.524h240.822c17.562 0 31.799 14.237 31.799 31.799s-14.237 31.799-31.799 31.799h-240.822c-17.562 0-31.799-14.237-31.799-31.799s14.237-31.799 31.799-31.799zM699.738 56.827999999999975h-508.779c-0.002 0-0.004 0-0.006 0-17.562 0-31.799-14.237-31.799-31.799 0-17.562 14.237-31.799 31.799-31.799 0.002 0 0.005 0 0.007 0h508.779c0.002 0 0.004 0 0.006 0 17.562 0 31.799 14.237 31.799 31.799 0 17.562-14.237 31.799-31.799 31.799-0.002 0-0.005 0-0.007 0zM1270.63 42.83600000000001l-136.311 143.093c-5.842 6.436-14.239 10.462-23.577 10.462-17.562 0-31.799-14.237-31.799-31.799 0-8.811 3.583-16.784 9.373-22.544l136.313-143.095c5.842-6.436 14.239-10.462 23.577-10.462 17.562 0 31.799 14.237 31.799 31.799 0 8.811-3.583 16.784-9.373 22.544zM858.731 737.109c0 0 0 0 0 0-163.912 0-296.788-132.877-296.788-296.788 0-163.912 132.877-296.788 296.788-296.788 163.912 0 296.788 132.877 296.788 296.788 0 163.912-132.877 296.788-296.788 296.788zM858.731 207.13c-128.788 0-233.191 104.404-233.191 233.191s104.404 233.191 233.191 233.191c128.788 0 233.191-104.404 233.191-233.191 0-128.788-104.404-233.191-233.191-233.191z"  horiz-adv-x="1451" />

    
    <glyph glyph-name="dizhi1" unicode="&#58976;" d="M630.426196 543.348327c0 64.919915-53.020297 117.552224-118.426196 117.552224-65.408899 0-118.428196-52.632309-118.428196-117.552224 0-64.916915 53.019297-117.549224 118.428196-117.549225 65.404899 0 118.426196 52.63131 118.426196 117.549225zM867.260589 543.348327C867.260589 738.102072 708.200698 896 512 896 315.817301 896 156.738411 738.102072 156.738411 543.348327c0-194.752745 355.261589-587.751122 355.261589-587.751122s355.260589 392.998377 355.260589 587.751122z m-592.096982 0c0 129.81583 106.038594 235.101449 236.834393 235.101449 130.794799 0 236.833393-105.285618 236.833393-235.101449 0-129.83383-106.038594-235.098449-236.833393-235.098449-130.793799-0.001-236.834393 105.264619-236.834393 235.098449zM616.486644 58.150911c1.958937 0.224993 8.09974-4.564853 9.712688-5.469824 8.037742-4.495856 15.830492-9.439697 22.954263-15.299509 11.949616-9.822685 33.229933-28.94607 29.783043-46.435508-1.743944-8.841716-6.85678-11.975615-13.335572-17.293445-11.371635-9.3357-23.425248-15.416505-36.568825-21.838299-9.192705-4.492856-18.623402-8.496727-28.33409-11.730623-19.93836-6.631787-40.77969-9.765686-61.722017-10.776654-41.915654-2.020935-86.311228 1.353957-125.916956 15.993487-10.695656 3.951873-21.032324 8.783718-31.058003 14.200544-5.026839 2.716913-9.97668 5.573821-14.885521 8.499727-11.090644 6.617787-24.263221 13.049581-23.242254 28.372088 0.808974 12.162609 10.626659 22.668272 18.832395 30.770012 8.317733 8.211736 17.478439 15.672497 27.030132 22.40528 3.268895 2.305926 13.371571 11.053645 17.774429 10.538662-134.102693 15.671497-146.285301-83.591315-146.285301-83.591315C273.408663-131.483998 512-127.99311 512-127.99311s238.589337-3.448889 250.771945 103.407678c0 0.002-12.182609 98.244844-146.285301 82.736343z"  horiz-adv-x="1024" />

    
    <glyph glyph-name="zhuangtai" unicode="&#58921;" d="M246.7 486.5c-16.1 0-29.3 13.2-29.3 29.3s13.2 29.3 29.3 29.3h534.3c16.1 0 29.3-13.2 29.3-29.3s-13.2-29.3-29.3-29.3h-534.3M477.6 147.5c-3.2 0-6.4 1.3-8.6 3.6l-81.6 81.6c-4.8 4.8-4.8 12.5 0 17.3s12.5 4.8 17.3 0l72.7-72.7 145.6 156.3c4.6 4.9 12.3 5.2 17.3 0.6 4.9-4.6 5.2-12.3 0.6-17.3l-154.4-165.5c-2.3-2.4-5.4-3.8-8.7-3.9h-0.2zM477.6 143.5c-4.3 0-8.4 1.7-11.5 4.8l-81.6 81.6c-3.1 3.1-4.8 7.1-4.8 11.5 0 4.3 1.7 8.4 4.8 11.5 3.1 3.1 7.1 4.8 11.5 4.8 4.3 0 8.4-1.7 11.5-4.8l69.7-69.7 142.7 153.2c3 3.2 7 5 11.3 5.2s8.5-1.4 11.6-4.3c6.6-6.1 6.9-16.4 0.8-22.9l-154.2-165.7c-3-3.2-7.2-5.1-11.6-5.2h-0.2zM395.9 249.7c-2.2 0-4.3-0.9-5.8-2.4-1.6-1.6-2.4-3.6-2.4-5.8s0.9-4.3 2.4-5.8l81.6-81.6c1.5-1.5 3.7-2.4 5.8-2.4h0.2c2.2 0 4.3 1 5.8 2.6l154.2 165.5c3.1 3.3 2.9 8.5-0.4 11.6-1.6 1.5-3.7 2.3-5.9 2.2-2.2-0.1-4.2-1-5.7-2.6l-148.4-159.4-75.6 75.6c-1.5 1.6-3.6 2.5-5.8 2.5zM477.9 137.4h-0.3c-6 0-11.6 2.3-15.9 6.6l-81.6 81.6c-4.2 4.2-6.6 9.9-6.6 15.9s2.3 11.6 6.6 15.9c4.2 4.2 9.9 6.6 15.8 6.6 6 0 11.6-2.3 15.9-6.6l65.2-65.2 138.4 148.5c4.2 4.5 10.2 7.1 16.4 7.1 5.7 0 11.1-2.1 15.3-6 4.4-4.1 6.9-9.6 7.1-15.6 0.2-6-1.9-11.7-6-16.1l-154.2-165.6c-4.2-4.4-10-7-16.1-7.1zM395.9 243.5c-0.4 0-0.9-0.1-1.4-0.6s-0.6-1.1-0.6-1.4c0-0.4 0.1-0.9 0.6-1.4l81.6-81.6c0.4-0.4 0.9-0.6 1.4-0.6v0c0.5 0 1.1 0.2 1.4 0.6l154.2 165.5c0.5 0.5 0.6 1.1 0.5 1.5 0 0.4-0.1 0.9-0.7 1.4-0.5 0.5-1 0.5-1.4 0.5-0.4 0-1-0.1-1.5-0.6l-152.8-164-80.1 80.1c-0.2 0.5-0.8 0.6-1.2 0.6zM478 133.4h-0.4c-7.1 0-13.7 2.7-18.7 7.7l-81.6 81.7c-5 5-7.7 11.6-7.7 18.7s2.8 13.7 7.8 18.7 11.6 7.7 18.7 7.7 13.7-2.8 18.7-7.7l62.3-62.3 135.5 145.5c5 5.3 12 8.4 19.3 8.4 6.7 0 13.1-2.5 18-7.1 5.2-4.8 8.1-11.3 8.4-18.4 0.2-7.1-2.3-13.8-7.1-18.9l-154.3-165.6c-4.9-5.3-11.8-8.3-18.9-8.4zM395.9 259.8c-4.9 0-9.5-1.9-13-5.4s-5.4-8.1-5.4-13 1.9-9.5 5.4-13l81.6-81.6c3.5-3.5 8.1-5.4 13-5.4h0.4c4.9 0.1 9.7 2.2 13.1 5.9l154.2 165.5c3.4 3.6 5.1 8.3 4.9 13.2-0.2 4.9-2.3 9.5-5.9 12.8-3.4 3.2-7.9 4.9-12.6 4.9-5.1 0-10-2.1-13.5-5.9l-141-151.5-68.1 68.1c-3.5 3.5-8.2 5.4-13.1 5.4zM473.8 147.5l-0.2 7.7-0.3 0.3-81.6 81.7c-1.1 1.2-1.8 2.7-1.8 4.3 0 1.6 0.6 3.1 1.8 4.3 1.1 1.1 2.7 1.8 4.3 1.8 1.6 0 3.1-0.6 4.3-1.8l77.2-77.2 149.9 161c1.2 1.2 2.7 1.9 4.4 1.9 1.5 0 3-0.6 4.1-1.6 1.2-1.1 1.9-2.6 1.9-4.2 0.1-1.6-0.5-3.1-1.6-4.3l-154.5-166 0.1-7.7-8-0.2zM394.5 240zM217.1-32.3c-65.3 0-118.3 53.1-118.3 118.3v534.2c0 65.3 53.1 118.3 118.3 118.3h59v-58.5h-59c-32.9 0-59.8-26.7-59.8-59.8v-534.2c0-32.9 26.7-59.8 59.8-59.8h593.5c32.9 0 59.8 26.7 59.8 59.8v534.2c0 32.9-26.7 59.8-59.8 59.8h-59v58.4h59c65.3 0 118.3-53.1 118.3-118.3v-534.1c0-65.3-53.1-118.3-118.3-118.3h-593.5M662.3 620.6c-16.1 0-29.3 13.2-29.3 29.3v118.6c0 16.1 13.2 29.3 29.3 29.3s29.3-13.2 29.3-29.3v-118.8c-0.1-16-13.1-29.1-29.3-29.1M365.5 620.6c-16.1 0-29.3 13.2-29.3 29.3v118.6c0 16.1 13.2 29.3 29.3 29.3s29.3-13.2 29.3-29.3v-118.8c0-16-13.2-29.1-29.3-29.1M455 679.9v58.6h117.9v-58.5l-117.9-0.1z"  horiz-adv-x="1024" />

    
    <glyph glyph-name="shangsanjiaoxing" unicode="&#58894;" d="M818.805 230.543c35.923 0 58.254 47.574 31.069 74.759l-306.805 306.805c-17.476 17.476-43.691 17.476-61.167 0l-306.805-306.805c-26.214-26.214-5.825-74.759 31.069-74.759h612.64z"  horiz-adv-x="1024" />

    
    <glyph glyph-name="xiasanjiaoxing" unicode="&#58895;" d="M205.195 561.702c-35.923 0-58.254-47.574-31.069-74.759l306.805-306.805c17.476-17.476 43.691-17.476 61.167 0l306.805 306.805c26.214 26.214 5.825 74.759-31.069 74.759h-612.64z"  horiz-adv-x="1024" />

    
    <glyph glyph-name="wode1" unicode="&#58881;" d="M535.514 387.546c140.025 0 253.833 113.925 253.833 253.833 0 140.025-113.925 253.833-253.833 253.833-140.025 0-253.833-113.925-253.833-253.833 0-140.025 113.807-253.833 253.833-253.833zM535.514 838.779c108.869 0 197.4-88.53 197.4-197.4s-88.53-197.4-197.4-197.4c-108.869 0-197.4 88.53-197.4 197.4 0 108.869 88.53 197.4 197.4 197.4zM933.371 58.585000000000036l-29.745 117.452c-25.631 96.29-115.689 151.547-247.132 151.547h-253.245c-131.326 0-221.502-55.257-247.25-151.9l-29.627-116.864c-11.64-43.736-2.116-89.707 25.984-126.388 31.745-41.266 83.591-65.955 138.615-65.955h477.57c55.023 0 106.871 24.69 138.615 65.955 28.217 36.799 37.739 82.887 26.217 126.152zM862.476-33.00300000000004c-21.163-27.394-56.199-43.853-93.822-43.853h-477.57c-37.623 0-72.775 16.342-93.82 43.853-17.635 22.926-23.397 50.439-16.107 77.831l29.627 116.864c26.336 98.994 143.437 109.576 192.579 109.576v0h253.245c49.145 0 166.126-10.699 192.462-109.339l29.745-117.452c7.053-27.042 1.295-54.552-16.342-77.478z"  horiz-adv-x="1024" />

    
    <glyph glyph-name="tubiaozhizuomoban" unicode="&#58949;" d="M1011.166 505.88v0.005c-11.139 31.592-39.193 54.331-73.225 59.341l-240.043 35.173L593.649 813.596c-15.072 30.868-47.631 50.816-82.958 50.816-35.24 0-67.757-19.949-82.871-50.816l-104.292-213.22-240.023-35.217c-34.054-4.899-62.131-27.617-73.27-59.385C-0.881 473.697 7.4 438.852 31.832 414.84l176.177-173.344-40.864-240.197c-5.734-33.483 9.162-67.82 38.052-87.527 28.253-19.005 66.129-21.091 96.559-5.098L510.734 19.6l209.11-110.948c13.533-7.141 28.715-10.92 43.941-10.92 18.762 0 36.931 5.537 52.639 16.104 28.758 19.619 43.632 53.936 37.898 87.419L813.48 241.473l176.198 173.342c24.388 24.036 32.671 58.902 21.488 91.065zM507.93 463.345c-30.544 0-54.56-8.61-71.306-25.623-29.29-29.722-28.918-76.497-28.918-76.971 0.165-11.349-8.857-20.74-20.205-20.948h-0.392c-11.163 0-20.33 8.898-20.576 20.104-0.062 2.615-0.947 64.096 40.452 106.423 24.798 25.356 58.784 38.228 100.967 38.228v0.001c11.369 0 20.576-9.248 20.576-20.617-0.001-11.369-9.229-20.597-20.598-20.597zM969.708 491.381c-5.667 16.082-20.3 27.771-38.14 30.406l-262.936 38.514L554.19 794.326c-7.777 15.907-24.826 26.167-43.478 26.167-18.585 0-35.634-10.283-43.411-26.188L352.836 560.28 89.834 521.681c-17.861-2.571-32.428-14.216-38.118-30.385-5.47-15.797-1.295-33.131 10.92-45.126l192.523-189.447-44.709-262.806c-2.9-16.874 4.525-33.636 19.377-43.764 14.851-10.018 35.174-11.159 51.366-2.635l229.498 121.824 229.674-121.888c16.017-8.436 36.318-7.36 51.366 2.747 14.698 10.039 22.123 26.781 19.224 43.653l-44.688 262.849L958.813 446.15v-0.005c12.215 12.039 16.388 29.351 10.895 45.236zM507.93 463.345c-30.544 0-54.56-8.61-71.306-25.623-29.29-29.722-28.918-76.497-28.918-76.971 0.165-11.349-8.857-20.74-20.205-20.948h-0.392c-11.163 0-20.33 8.898-20.576 20.104-0.062 2.615-0.947 64.096 40.452 106.423 24.798 25.356 58.784 38.228 100.967 38.228v0.001c11.369 0 20.576-9.248 20.576-20.617-0.001-11.369-9.229-20.597-20.598-20.597z"  horiz-adv-x="1024" />

    
    <glyph glyph-name="dianshangfenlei-" unicode="&#59427;" d="M95.312 687.243h785.072c34.97 0 63.312 28.343 63.312 63.312s-28.342 63.312-63.312 63.312h-785.072c-34.97 0.001-63.312-28.342-63.312-63.311s28.342-63.313 63.312-63.313zM379.946 455.758h-284.633c-34.97 0-63.312-28.343-63.312-63.312s28.342-63.312 63.312-63.312h284.633c34.97 0 63.312 28.343 63.312 63.312s-28.343 63.312-63.312 63.312zM300.805 97.648h-205.493c-34.97 0-63.312-28.342-63.312-63.312s28.342-63.312 63.312-63.312h205.493c34.97 0 63.312 28.342 63.312 63.312s-28.343 63.312-63.312 63.312zM983.996 15.442l-75.923 97.617c34.321 38.149 55.409 88.426 55.409 143.662 0 118.698-96.563 215.262-215.262 215.262s-215.262-96.563-215.262-215.262 96.563-215.262 215.262-215.262c36.098 0 70.088 9.033 99.999 24.801l75.803-97.462c7.493-9.633 18.697-14.666 30.011-14.666 0.007 0 0.018 0 0.027 0 8.812 0 16.921 3.012 23.352 8.063 16.476 12.823 19.467 36.689 6.582 53.247zM608.933 256.72c0 76.803 62.483 139.287 139.287 139.287s139.287-62.483 139.287-139.287-62.483-139.287-139.287-139.287-139.287 62.484-139.287 139.287z"  horiz-adv-x="1024" />

    
    <glyph glyph-name="youxiaoqi" unicode="&#58977;" d="M512-54.272c-107.52 0-208.384 41.472-283.648 117.248-1.024 1.024-1.536 1.536-2.048 2.56-74.24 75.264-115.2 175.104-115.2 281.088 0 107.52 41.472 208.384 117.248 283.648C304.64 705.536 404.992 747.008 512 747.008c54.272 0 106.496-10.752 156.16-31.744 47.616-19.968 90.624-49.152 126.976-86.016l1.536-1.536 0.512-0.512c36.352-36.864 64.512-79.36 84.48-126.976 20.48-49.152 31.232-101.376 31.232-154.624 0-107.52-41.472-207.872-117.248-283.648-36.352-36.864-79.36-65.536-126.976-86.016-49.664-19.968-102.4-30.208-156.672-30.208z m-235.008 160.768c62.976-61.952 146.432-95.744 235.52-95.744 89.6 0 174.08 34.816 237.056 98.304 63.488 63.488 98.304 147.456 98.304 237.568 0 89.088-34.304 172.544-96.768 236.032l-1.536 1.536C686.08 647.168 602.112 682.496 512 682.496c-89.6 0-174.08-34.816-237.568-98.304-63.488-62.976-98.304-147.456-98.304-237.568 0-90.112 34.816-174.08 98.304-237.568 1.024-1.024 1.536-2.048 2.56-2.56zM58.88 651.776c9.728 13.824 19.968 28.16 31.232 41.984 11.776 14.336 23.552 27.136 35.84 39.424 11.264 11.264 24.064 23.04 38.4 34.816 13.824 11.264 28.16 22.016 41.984 31.232 14.336 9.728 29.696 19.456 45.568 28.16l1.536 0.512c14.848 8.192 30.208 15.36 45.568 22.016 16.896 7.168 36.352-0.512 43.52-17.92 7.168-16.896-1.024-36.352-17.408-43.52-13.312-5.632-27.136-11.776-39.936-18.944l-2.048-1.024c-13.312-7.68-26.624-15.36-39.424-24.064-13.312-8.704-26.112-18.432-37.376-27.648-10.752-9.216-22.528-19.968-33.792-31.232-11.776-11.264-22.016-23.04-30.72-33.792-9.728-11.776-18.944-24.064-27.648-37.376-10.24-15.36-31.232-19.456-46.592-9.216-14.848 10.752-19.456 31.744-8.704 46.592zM956.416 605.184c-15.36-10.24-36.352-6.144-46.592 9.216-8.704 13.312-17.92 25.6-27.136 36.864-9.216 11.264-19.968 22.528-31.232 33.792-10.752 11.264-22.528 22.016-34.304 31.232-11.264 9.216-23.552 18.432-36.864 27.136-12.288 8.704-26.112 16.384-39.424 24.064-14.336 7.68-28.16 14.336-41.984 19.968-16.896 7.68-24.576 27.136-17.408 44.032s26.624 25.088 44.032 17.408c16.896-7.168 32.768-14.848 47.104-23.04 15.36-7.68 30.72-17.408 45.568-27.648 14.336-9.216 27.648-19.456 41.984-31.232 13.824-11.264 26.624-23.04 38.912-34.816 11.776-12.288 23.552-25.088 35.328-39.424 11.264-13.824 22.528-28.16 31.744-41.984 9.216-13.824 5.632-34.816-9.728-45.568zM297.472 39.936l-92.16-92.16M205.312-84.48c-8.192 0-16.384 3.072-23.04 9.728-12.8 12.8-12.8 33.28 0 46.08l92.16 92.16c12.8 12.8 33.28 12.8 46.08 0s12.8-33.28 0-46.08l-92.16-92.16c-6.144-6.656-14.336-9.728-23.04-9.728zM726.528 39.936l92.16-92.16M818.688-84.48c-8.192 0-16.384 3.072-23.04 9.728l-92.16 92.16c-12.8 12.8-12.8 33.28 0 46.08s33.28 12.8 46.08 0l92.16-92.16c12.8-12.8 12.8-33.28 0-46.08-6.656-6.656-14.848-9.728-23.04-9.728zM670.208 327.168h-158.72c-15.36 0-27.648 12.288-27.648 28.16V605.184c0 15.36 12.288 27.648 27.648 27.648 15.36 0 27.648-12.288 27.648-27.648v-221.696h130.56c15.36 0 27.648-12.8 27.648-28.16 0.512-15.872-11.776-28.16-27.136-28.16z"  horiz-adv-x="1024" />

    
    <glyph glyph-name="youjiantou-copy" unicode="&#59804;" d="M750.768 406.439c0-15.884-5.127-31.771-15.467-44.513l-353.563-435.355c-22.509-27.711-61.294-30.265-86.652-5.666-25.356 24.6-27.667 66.979-5.186 94.689l315.166 388.091-316.185 345.545c-23.978 26.201-23.978 68.65 0 94.851s62.822 26.201 86.8 0l357.103-390.218c11.96-13.033 17.984-30.232 17.984-47.425z"  horiz-adv-x="1024" />

    
    <glyph glyph-name="zuojiantou1" unicode="&#59004;" d="M369.728 384l384.768 384.704a48.64 48.64 0 0 1 0.896 68.8 48.64 48.64 0 0 1-68.736-0.96L269.44 419.264a48.704 48.704 0 0 1-11.136-17.344c-1.024-2.304-1.024-4.736-1.472-7.04-0.896-3.648-2.048-7.168-2.048-10.88 0-3.712 1.152-7.232 1.984-10.88 0.512-2.368 0.512-4.8 1.472-7.04a48.704 48.704 0 0 1 11.136-17.344l417.216-417.28a48.576 48.576 0 0 1 68.736-0.96 48.576 48.576 0 0 1-0.896 68.736L369.728 384z"  horiz-adv-x="1024" />

    


  </font>
</defs>
</svg>
